<?xml version="1.0" encoding="UTF-8" standalone="no"?>
<svg
   xmlns:dc="http://purl.org/dc/elements/1.1/"
   xmlns:cc="http://creativecommons.org/ns#"
   xmlns:rdf="http://www.w3.org/1999/02/22-rdf-syntax-ns#"
   xmlns:svg="http://www.w3.org/2000/svg"
   xmlns="http://www.w3.org/2000/svg"
   xmlns:sodipodi="http://sodipodi.sourceforge.net/DTD/sodipodi-0.dtd"
   xmlns:inkscape="http://www.inkscape.org/namespaces/inkscape"
   viewBox="0 0 1000 500"
   aria-labelledby="title"
   aria-describedby="desc"
   role="img"
   version="1.1"
   id="svg10"
   sodipodi:docname="template-gamipress-horizontal.svg"
   inkscape:version="0.92.4 (5da689c313, 2019-01-14)"
   width="1000"
   height="500">
  <metadata
     id="metadata16">
    <rdf:RDF>
      <cc:Work
         rdf:about="">
        <dc:format>image/svg+xml</dc:format>
        <dc:type
           rdf:resource="http://purl.org/dc/dcmitype/StillImage" />
        <dc:title>Ticket</dc:title>
      </cc:Work>
    </rdf:RDF>
  </metadata>
  <defs
     id="defs14" />
  <sodipodi:namedview
     pagecolor="#ffffff"
     bordercolor="#666666"
     borderopacity="1"
     objecttolerance="10"
     gridtolerance="10"
     guidetolerance="10"
     inkscape:pageopacity="0"
     inkscape:pageshadow="2"
     inkscape:window-width="1920"
     inkscape:window-height="1012"
     id="namedview12"
     showgrid="false"
     inkscape:zoom="0.70710682"
     inkscape:cx="243.6138"
     inkscape:cy="360.11888"
     inkscape:window-x="-8"
     inkscape:window-y="-8"
     inkscape:window-maximized="1"
     inkscape:current-layer="svg10"
     showguides="true"
     inkscape:guide-bbox="true"
     inkscape:measure-start="25.1142,38.8047"
     inkscape:measure-end="25.1142,42.6253"
     inkscape:lockguides="false">
    <sodipodi:guide
       position="500,-0.07421875"
       orientation="1,0"
       id="guide4668"
       inkscape:locked="false" />
    <sodipodi:guide
       position="1000.2539,250.00781"
       orientation="0,1"
       id="guide4670"
       inkscape:locked="false" />
    <sodipodi:guide
       position="304.99999,679.74998"
       orientation="0,1"
       id="guide838"
       inkscape:locked="false" />
  </sodipodi:namedview>
  <title
     id="title2">Ticket</title>
  <desc
     id="desc4">A line styled icon from Orion Icon Library.</desc>
  <rect
     style="opacity:1;fill:#fcfcfc;fill-opacity:1;fill-rule:evenodd;stroke:none;stroke-width:1.99937022;stroke-linecap:square;stroke-linejoin:miter;stroke-miterlimit:10;stroke-dasharray:none;stroke-dashoffset:0;stroke-opacity:1;paint-order:normal"
     id="rect4658"
     width="1000"
     height="500"
     x="0"
     y="-5.9999998e-008"
     inkscape:export-xdpi="96"
     inkscape:export-ydpi="96" />
  <g
     id="g4610"
     transform="matrix(7.3781627,0,0,7.3781627,137.9422,-100.12763)"
     style="stroke-width:0.13553509"
     inkscape:export-xdpi="96"
     inkscape:export-ydpi="96" />
  <g
     id="g865"
     transform="translate(-187,-62.999998)" />
  <g
     transform="matrix(0.133992,0,0,-0.133992,328.79553,422.78033)"
     id="g4"
     style="fill:#e85011;stroke:none;stroke-width:0.99508435">
    <path
       d="M 1146,2549 C 857,2521 552,2369 353,2156 126,1913 9,1617 9,1285 8,1020 76,799 226,574 412,296 712,100 1054,35 c 100,-19 314,-19 433,0 480,78 880,436 1012,909 127,453 -5,931 -347,1258 -204,195 -477,321 -742,343 -153,12 -177,12 -264,4 z m 316,-399 c 298,-66 528,-262 641,-545 63,-158 78,-316 46,-483 -19,-96 -91,-150 -186,-139 -52,6 -90,30 -117,77 -16,27 -19,48 -16,109 8,173 -6,274 -51,363 -36,72 -125,174 -189,216 -97,65 -158,84 -288,90 -104,4 -120,2 -198,-23 -232,-76 -384,-283 -384,-525 0,-165 50,-283 169,-400 130,-127 227,-162 446,-158 158,2 170,-2 215,-64 52,-72 34,-176 -38,-224 -69,-46 -297,-56 -447,-20 -244,60 -469,238 -579,461 -72,145 -91,232 -90,410 0,133 3,160 27,238 117,381 453,634 847,636 69,0 135,-6 192,-19 z m 147,-995 c 26,-6 68,-40 174,-144 201,-197 258,-263 267,-313 11,-55 -3,-95 -47,-140 -60,-62 -134,-69 -203,-21 -14,10 -107,101 -206,203 -145,148 -184,193 -193,225 -14,50 0,105 37,146 28,31 95,61 122,54 8,-2 30,-7 49,-10 z"
       id="path2"
       inkscape:connector-curvature="0"
       style="stroke-width:0.99508435" />
  </g>
</svg>
